<?xml version="1.0" encoding="UTF-8" standalone="no"?>
<!-- Created with Inkscape (http://www.inkscape.org/) -->

<svg
   version="1.1"
   id="svg48"
   width="512"
   height="593"
   viewBox="0 0 512 593"
   xmlns="http://www.w3.org/2000/svg"
   xmlns:svg="http://www.w3.org/2000/svg">
  <defs
     id="defs52" />
  <g
     id="g54"
     transform="translate(-86,-27)">
    <g
       id="g1837"
       transform="translate(622.36866,84.524694)">
      <rect
         style="fill:#ffffff;fill-opacity:1;stroke-width:3.64724;stroke-linejoin:round;paint-order:stroke fill markers"
         id="rect1933"
         width="438.18375"
         height="381.24075"
         x="122.90813"
         y="195.95949"
         transform="translate(-622.36866,-84.524694)" />
      <path
         style="fill:#ffffff;fill-opacity:1;stroke-width:4.83817;stroke-linejoin:round;paint-order:stroke fill markers"
         d="m -371.03397,-84.351106 c -46.99294,0.664916 -88.53486,34.848424 -107.21933,76.5884416 -7.30186,15.8827816 -11.47935,33.1088904 -12.81849,50.5172784 -40.62483,0.325194 -81.49481,-0.647936 -121.96736,0.483705 -8.63276,3.840496 -13.50443,13.609739 -11.30337,22.902372 5.07807,127.271659 10.56081,254.542119 17.58299,381.720489 0.96056,27.35749 23.22955,52.88318 50.62051,56.00694 65.32014,2.04679 130.71559,0.50156 196.06444,0.85923 63.00907,-0.29823 126.11191,0.20781 189.06247,-0.59239 19.93171,-7.27492 38.46622,-22.37198 43.30531,-43.92049 4.81648,-23.60253 3.36304,-48.00787 5.41079,-71.93944 4.96294,-107.99754 10.90476,-215.97164 14.14583,-324.036885 1.44895,-8.82929 -2.65046,-19.723226 -12.96543,-20.061142 -35.27055,-2.883102 -70.78408,-0.742709 -106.14555,-1.422389 -6.91293,-0.66866 -18.0719,3.411696 -15.99607,-7.215586 -5.80495,-54.061637 -45.10298,-106.137523 -99.62689,-117.778571 -9.28241,-1.629567 -18.73469,-2.195459 -28.14985,-2.111563 z m 4.43298,35.209986 c 23.78331,0.321147 47.07101,11.345242 62.23389,29.733946 15.69204,16.7285946 23.70832,39.61489 25.97503,62.161788 -58.74722,0 -117.49444,0 -176.24166,0 2.0291,-25.566717 12.50488,-50.2234114 31.53094,-67.707328 14.66432,-15.088093 35.68059,-24.222529 56.5018,-24.188406 z m 4.64284,187.04043 c 25.48235,-0.32467 50.048,8.74366 71.2387,22.19343 -2.85884,5.1566 -5.70197,12.25758 -9.90492,15.57633 -29.47295,-17.59229 -67.72521,-27.66422 -100.1943,-12.1227 -18.75436,8.19293 -33.64319,29.09156 -27.76641,50.03497 5.23785,21.34879 28.19173,29.83918 46.19271,37.86304 26.00471,11.54743 54.56166,18.02736 77.21584,35.89399 15.74454,12.45671 25.44895,31.63944 25.84655,51.75012 1.28537,30.96048 -23.79115,56.54528 -51.42626,66.39635 -19.90628,7.1561 -43.08331,7.0709 -63.64502,2.82731 -21.90297,-5.06894 -42.63719,-16.58079 -60.38793,-30.30095 3.20446,-5.31275 6.59445,-10.51542 10.16142,-15.59189 24.34404,18.04633 54.02035,32.44108 85.00401,30.60083 26.34217,-2.75173 55.83642,-18.30692 61.19645,-46.41293 2.11856,-18.63976 -6.97916,-37.5909 -23.1935,-47.19278 -34.22218,-22.86768 -78.3885,-27.18011 -109.84014,-54.62859 -12.26029,-11.43847 -18.22035,-28.45132 -16.20332,-45.05791 0.98837,-25.1694 20.17399,-45.84358 42.77533,-54.79181 13.41229,-6.12831 28.40293,-6.98637 42.93079,-7.03681 z"
         id="path1831"
         transform="translate(86,30)" />
    </g>
    <g
       id="g1841"
       transform="translate(0.73801471)">
      <path
         style="fill:#f4511e;fill-opacity:1;stroke-width:3.4211;stroke-linejoin:round;paint-order:stroke fill markers"
         d="m 165.63522,233.7554 c -17.90392,-0.65638 -35.6038,5.68657 -49.94101,16.18594 -15.6341,12.37814 -24.123987,32.69202 -21.753389,52.51748 1.242754,24.64077 20.665189,44.4158 42.574359,53.31861 20.71319,9.81547 45.20003,7.77431 65.15414,19.40115 12.77826,7.27902 22.46389,21.21484 21.14371,36.34323 1.47476,14.7844 -5.37593,30.22974 -18.49827,37.67607 -20.63338,11.78233 -46.70753,9.54249 -68.04141,0.83541 -11.86569,-5.17801 -19.54846,-15.99612 -26.81352,-26.16315 -7.62493,-8.80414 -24.929005,-1.92217 -23.074353,10.05049 3.61714,11.7075 12.189576,21.45304 21.310113,29.404 19.81112,16.5108 46.57602,22.96255 71.97647,20.34441 27.88433,-0.32689 56.01787,-17.06478 65.99891,-43.74124 5.80159,-14.64548 5.49331,-31.09054 2.90185,-46.39966 -5.38408,-22.33067 -23.90724,-39.42243 -45.21987,-46.69465 -23.42653,-9.16909 -51.15806,-7.7503 -71.55524,-23.9977 -15.93479,-13.41891 -14.30901,-40.98191 2.44026,-53.07377 14.94749,-10.56635 34.41098,-10.2669 51.77303,-7.41603 15.33995,2.98896 25.67367,15.58096 35.7996,26.3665 8.19689,6.61415 22.23006,-0.98285 20.32632,-11.69198 -2.11255,-11.56594 -12.39537,-19.42773 -21.02528,-26.43661 -14.98765,-11.10312 -33.42215,-18.24919 -52.29236,-16.84132 -1.06136,0.004 -2.12271,0.009 -3.18406,0.0128 z"
         id="path1137"
         transform="translate(86,30)" />
      <path
         style="fill:#f4511e;fill-opacity:1;stroke-width:3.4211;stroke-linejoin:round;paint-order:stroke fill markers"
         d="m 301.44506,236.19383 c -7.21824,0.0469 -13.24117,6.52065 -12.30204,13.80797 -1.07821,60.22842 -0.39891,120.48359 -0.40467,180.72191 0.36161,14.23583 -0.37743,28.58282 1.07885,42.7485 3.82569,11.54929 23.8742,9.97501 24.93753,-2.47689 1.23483,-16.37346 0.51476,-32.82375 0.72181,-49.22835 7.74682,-6.99272 15.30265,-14.20536 23.30703,-20.90707 22.07835,25.9738 43.03004,53.20011 65.58466,78.86318 9.54772,8.42303 25.11567,-6.17706 18.18285,-16.49738 -20.57931,-27.1219 -42.91952,-52.85655 -63.79478,-79.74988 19.90035,-19.85334 42.17138,-37.84713 61.8052,-58.18145 9.01047,-9.21452 -6.52122,-25.73678 -16.27388,-17.72851 -30.03945,25.86796 -58.70942,53.30638 -88.45566,79.51905 -0.86557,-46.23469 0.33851,-92.49947 -0.92334,-138.72094 0.34459,-7.35362 -6.54476,-12.50169 -13.46356,-12.17014 z"
         id="path1139"
         transform="translate(86,30)" />
    </g>
  </g>
</svg>
